P3
50 50
255
83 74 74 82 74 74 82 74 74 82 74 74 82 74 74 82 74 74 81 73 73
81 73 73 81 73 73 81 73 73 81 73 73 80 72 72 80 72 72 80 72 72 80 72 72
79 71 71 79 71 71 79 71 71 79 71 71 78 71 71 78 70 70 78 70 70 78 70 70
77 70 70 77 69 69 77 69 69 77 69 69 76 69 69 76 69 69 76 68 68 76 68 68
168 151 151 170 153 153 171 154 154 173 155 155 174 156 156 174 157 157
175 158 158 176 158 158 176 159 159 177 159 159 177 159 159 177 159 159
177 160 160 178 160 160 178 160 160 178 160 160 178 160 160 178 161 161
178 161 161
82 74 74 82 74 74 82 74 74 82 74 74 81 73 73 81 73 73 81 73 73 81 73 73
81 73 73 80 72 72 80 72 72 80 72 72 80 72 72 79 72 72 79 71 71 79 71 71
79 71 71 79 71 71 78 71 71 78 70 70 78 70 70 78 70 70 77 70 70 77 69 69
77 69 69 77 69 69 76 69 69 76 68 68 76 68 68 75 68 68 75 68 68 167 151 151
169 152 152 171 154 154 172 155 155 173 156 156 174 157 157 175 157 157
175 158 158 176 158 158 176 159 159 176 159 159 177 159 159 177 159 159
177 160 160 178 160 160 178 160 160 178 160 160 178 160 160 178 160 160
82 74 74 82 74 74 81 73 73 81 73 73 81 73 73 81 73 73 81 73 73 80 72 72
80 72 72 80 72 72 80 72 72 80 72 72 79 71 71 79 71 71 79 71 71 79 71 71
78 71 71 78 70 70 78 70 70 78 70 70 77 70 70 77 69 69 77 69 69 77 69 69
76 69 69 76 69 69 76 68 68 76 68 68 75 68 68 75 68 68 164 148 148 167 150 150
169 152 152 170 153 153 172 154 154 173 155 155 173 156 156 174 157 157
175 157 157 175 158 158 176 158 158 176 159 159 176 159 159 177 159 159
177 159 159 177 159 159 177 160 160 178 160 160 178 160 160 178 160 160
81 73 73 81 73 73 81 73 73 81 73 73 81 73 73 80 72 72 80 72 72 80 72 72
80 72 72 80 72 72 79 71 71 79 71 71 79 71 71 79 71 71 78 71 71 78 70 70
78 70 70 78 70 70 78 70 70 77 70 70 77 69 69 77 69 69 77 69 69 76 69 69
76 68 68 76 68 68 76 68 68 75 68 68 75 68 68 75 67 67 164 148 148 166 150 150
168 152 152 170 153 153 171 154 154 172 155 155 173 156 156 174 156 156
174 157 157 175 157 157 175 158 158 176 158 158 176 158 158 176 159 159
177 159 159 177 159 159 177 159 159 177 160 160 177 160 160 178 160 160
81 73 73 81 73 73 81 73 73 80 72 72 80 72 72 80 72 72 80 72 72 80 72 72
79 72 72 79 71 71 79 71 71 79 71 71 79 71 71 78 71 71 78 70 70 78 70 70
78 70 70 77 70 70 77 69 69 77 69 69 77 69 69 76 69 69 76 69 69 76 68 68
76 68 68 75 68 68 75 68 68 75 67 67 75 67 67 74 67 67 163 147 147 166 149 149
168 151 151 169 152 152 171 154 154 172 155 155 173 155 155 173 156 156
174 157 157 174 157 157 175 157 157 175 158 158 176 158 158 176 158 158
176 159 159 176 159 159 177 159 159 177 159 159 177 159 159 177 160 160
81 73 73 80 72 72 80 72 72 80 72 72 80 72 72 80 72 72 79 71 71 79 71 71
79 71 71 79 71 71 79 71 71 78 71 71 78 70 70 78 70 70 78 70 70 77 70 70
77 70 70 77 69 69 77 69 69 76 69 69 76 69 69 76 68 68 76 68 68 76 68 68
75 68 68 75 68 68 75 67 67 75 67 67 74 67 67 74 67 67 163 147 147 165 149 149
167 151 151 169 152 152 170 153 153 171 154 154 172 155 155 173 156 156
173 156 156 174 157 157 175 157 157 175 157 157 175 158 158 176 158 158
176 158 158 176 159 159 176 159 159 177 159 159 177 159 159 177 159 159
80 72 72 80 72 72 80 72 72 80 72 72 79 71 71 79 71 71 79 71 71 79 71 71
79 71 71 78 71 71 78 70 70 78 70 70 78 70 70 77 70 70 77 70 70 77 69 69
77 69 69 77 69 69 76 69 69 76 69 69 76 68 68 76 68 68 75 68 68 75 68 68
75 67 67 75 67 67 74 67 67 74 67 67 74 67 67 74 66 66 162 146 146 165 148 148
167 150 150 168 152 152 170 153 153 171 154 154 172 155 155 172 155 155
173 156 156 174 156 156 174 157 157 175 157 157 175 157 157 175 158 158
176 158 158 176 158 158 176 158 158 176 159 159 176 159 159 177 159 159
80 72 72 79 72 72 79 71 71 79 71 71 79 71 71 79 71 71 79 71 71 78 71 71
78 70 70 78 70 70 78 70 70 77 70 70 77 70 70 77 69 69 77 69 69 77 69 69
76 69 69 76 69 69 76 68 68 76 68 68 75 68 68 75 68 68 75 68 68 75 67 67
74 67 67 74 67 67 74 67 67 74 66 66 73 66 66 73 66 66 201 161 21 199 160 20
180 144 18 150 120 15 102 82 11 170 153 153 171 154 154 172 155 155 173 155 155
173 156 156 174 156 156 174 157 157 175 157 157 175 157 157 175 158 158
175 158 158 176 158 158 176 158 158 176 159 159 176 159 159
79 71 71 79 71 71 79 71 71 79 71 71 78 71 71 78 70 70 78 70 70 78 70 70
78 70 70 77 70 70 77 70 70 77 69 69 77 69 69 77 69 69 76 69 69 76 69 69
76 68 68 76 68 68 75 68 68 75 68 68 75 68 68 75 67 67 75 67 67 74 67 67
74 67 67 74 66 66 74 66 66 73 66 66 73 66 66 169 135 17 194 155 20 224 187 60
161 129 17 132 106 14 93 74 10 170 153 153 171 154 154 172 154 154 172 155 155
173 156 156 173 156 156 174 156 156 174 157 157 175 157 157 175 157 157
175 158 158 175 158 158 176 158 158 176 158 158 176 158 158
79 71 71 79 71 71 78 71 71 78 70 70 78 70 70 78 70 70 78 70 70 77 70 70
77 70 70 77 69 69 77 69 69 77 69 69 76 69 69 76 69 69 76 68 68 76 68 68
76 68 68 75 68 68 75 68 68 75 67 67 75 67 67 74 67 67 74 67 67 74 67 67
74 66 66 73 66 66 73 66 66 73 66 66 73 65 65 165 132 17 167 134 17 154 123 16
133 106 14 104 83 11 66 53 7 26 21 3 170 153 153 171 154 154 172 155 155
172 155 155 173 156 156 173 156 156 174 156 156 174 157 157 174 157 157
175 157 157 175 158 158 175 158 158 175 158 158 176 158 158
78 70 70 78 70 70 78 70 70 78 70 70 78 70 70 77 70 70 77 69 69 77 69 69
77 69 69 77 69 69 76 69 69 76 69 69 76 68 68 76 68 68 76 68 68 75 68 68
75 68 68 75 67 67 75 67 67 74 67 67 74 67 67 74 67 67 74 66 66 73 66 66
73 66 66 73 66 66 73 65 65 72 65 65 72 65 65 130 104 13 132 106 14 119 95 12
97 78 10 68 54 7 29 23 3 26 21 3 170 153 153 171 154 154 171 154 154
172 155 155 172 155 155 173 156 156 173 156 156 174 156 156 174 157 157
174 157 157 175 157 157 175 157 157 175 158 158 175 158 158
78 70 70 78 70 70 77 70 70 77 70 70 77 69 69 77 69 69 77 69 69 76 69 69
76 69 69 76 69 69 76 68 68 76 68 68 75 68 68 75 68 68 75 68 68 75 67 67
75 67 67 74 67 67 74 67 67 74 67 67 74 66 66 73 66 66 73 66 66 73 66 66
73 66 66 73 65 65 72 65 65 72 65 65 72 65 65 79 63 8 88 70 9 76 61 8 54 43 6
26 21 3 26 21 3 168 152 152 169 152 152 170 153 153 171 154 154 172 154 154
172 155 155 173 155 155 173 156 156 173 156 156 174 156 156 174 157 157
174 157 157 175 157 157 175 157 157 175 158 158
77 70 70 77 69 69 77 69 69 77 69 69 77 69 69 76 69 69 76 69 69 76 68 68
76 68 68 76 68 68 75 68 68 75 68 68 75 68 68 75 67 67 75 67 67 74 67 67
74 67 67 74 67 67 74 66 66 73 66 66 73 66 66 73 66 66 73 66 66 73 65 65
72 65 65 72 65 65 72 65 65 72 64 64 71 64 64 156 140 140 28 22 3 26 21 3
26 21 3 26 21 3 26 21 3 168 151 151 169 152 152 170 153 153 170 153 153
171 154 154 172 155 155 172 155 155 173 155 155 173 156 156 173 156 156
174 156 156 174 157 157 174 157 157 175 157 157 175 157 157
77 69 69 77 69 69 76 69 69 76 69 69 76 68 68 76 68 68 76 68 68 75 68 68
75 68 68 75 68 68 75 67 67 75 67 67 75 67 67 74 67 67 74 67 67 74 67 67
74 66 66 73 66 66 73 66 66 73 66 66 73 66 66 73 65 65 19 187 94 19 184 92
18 175 88 17 163 82 15 145 73 71 64 64 71 64 64 155 140 140 159 143 143
161 145 145 163 147 147 165 148 148 166 150 150 167 151 151 168 152 152
169 152 152 170 153 153 171 154 154 171 154 154 172 155 155 172 155 155
173 155 155 173 156 156 173 156 156 174 156 156 174 157 157 174 157 157
174 157 157
76 69 69 76 68 68 76 68 68 76 68 68 76 68 68 75 68 68 75 68 68 75 68 68
75 67 67 75 67 67 74 67 67 74 67 67 74 67 67 74 66 66 74 66 66 73 66 66
73 66 66 73 66 66 73 66 66 73 65 65 20 199 100 21 201 101 20 197 99 19 190 95
19 181 91 17 170 85 16 156 78 14 139 70 12 116 58 155 139 139 158 142 142
161 145 145 163 146 146 164 148 148 166 149 149 167 150 150 168 151 151
169 152 152 170 153 153 170 153 153 171 154 154 171 154 154 172 155 155
172 155 155 173 155 155 173 156 156 173 156 156 174 156 156 174 157 157
174 157 157
76 68 68 75 68 68 75 68 68 75 68 68 75 68 68 75 67 67 75 67 67 74 67 67
74 67 67 74 67 67 74 67 67 74 66 66 74 66 66 73 66 66 73 66 66 73 66 66
73 65 65 72 65 65 72 65 65 21 201 101 21 204 102 21 202 101 20 196 98 19 189 95
18 180 90 17 169 85 16 156 78 15 141 71 13 123 62 10 99 50 157 142 142
160 144 144 162 146 146 164 147 147 165 149 149 166 150 150 167 151 151
168 152 152 169 152 152 170 153 153 170 153 153 171 154 154 172 154 154
172 155 155 172 155 155 173 155 155 173 156 156 173 156 156 174 156 156
174 157 157
75 68 68 75 67 67 75 67 67 75 67 67 74 67 67 74 67 67 74 67 67 74 67 67
74 66 66 74 66 66 73 66 66 73 66 66 73 66 66 73 66 66 73 65 65 72 65 65
72 65 65 72 65 65 20 196 98 21 202 101 21 202 101 20 198 99 20 192 96 19 184 92
18 175 88 17 164 82 16 152 76 14 138 69 13 121 61 11 101 51 8 73 37 159 144 144
161 145 145 163 147 147 165 148 148 166 149 149 167 150 150 168 151 151
169 152 152 169 153 153 170 153 153 171 154 154 171 154 154 172 154 154
172 155 155 172 155 155 173 155 155 173 156 156 173 156 156 174 156 156
74 67 67 74 67 67 74 67 67 74 67 67 74 67 67 74 66 66 74 66 66 73 66 66
73 66 66 73 66 66 73 66 66 73 65 65 72 65 65 72 65 65 72 65 65 72 65 65
72 65 65 18 175 88 20 195 98 20 197 99 20 195 98 20 191 96 32 198 106 18 177 89
17 168 84 16 157 79 15 145 73 14 132 66 12 116 58 10 97 49 8 74 37 4 37 19
161 145 145 163 146 146 164 148 148 165 149 149 167 150 150 167 151 151
168 152 152 169 152 152 170 153 153 170 153 153 171 154 154 171 154 154
172 155 155 172 155 155 172 155 155 173 155 155 173 156 156 173 156 156
74 67 67 74 66 66 74 66 66 73 66 66 73 66 66 73 66 66 73 66 66 73 66 66
73 65 65 72 65 65 72 65 65 72 65 65 72 65 65 72 65 65 72 64 64 71 64 64
71 64 64 18 180 90 19 189 95 19 190 95 19 187 94 20 184 93 29 187 99 17 168 84
16 159 80 15 149 75 14 137 69 13 124 62 11 109 55 10 91 46 7 69 35 4 39 20
160 144 144 162 146 146 164 147 147 165 149 149 166 150 150 167 150 150
168 151 151 169 152 152 169 152 152 170 153 153 170 153 153 171 154 154
171 154 154 172 155 155 172 155 155 172 155 155 173 155 155 173 156 156
73 66 66 73 66 66 73 66 66 73 66 66 73 66 66 73 65 65 72 65 65 72 65 65
72 65 65 72 65 65 72 65 65 72 64 64 71 64 64 71 64 64 71 64 64 71 64 64
71 64 64 18 173 87 18 179 90 18 180 90 18 177 89 18 172 86 17 166 83 16 158 79
15 149 75 14 139 70 13 127 64 12 114 57 10 99 50 9 82 41 7 61 31 4 34 17
160 144 144 162 146 146 163 147 147 164 148 148 166 149 149 167 150 150
167 151 151 168 151 151 169 152 152 169 153 153 170 153 153 170 153 153
171 154 154 171 154 154 172 155 155 172 155 155 172 155 155 173 155 155
73 65 65 73 65 65 72 65 65 72 65 65 72 65 65 72 65 65 72 65 65 72 65 65
72 64 64 71 64 64 71 64 64 71 64 64 71 64 64 71 64 64 70 63 63 70 63 63
70 63 63 17 162 81 17 168 84 17 168 84 17 165 83 17 161 81 16 154 77 15 147 74
14 138 69 13 128 64 12 116 58 11 103 52 9 88 44 8 71 36 6 51 26 3 26 13 3 26 13
161 145 145 163 146 146 164 148 148 165 149 149 166 150 150 167 150 150
168 151 151 168 152 152 169 152 152 170 153 153 170 153 153 171 154 154
171 154 154 171 154 154 172 155 155 172 155 155 172 155 155
72 65 65 72 65 65 72 65 65 72 65 65 72 64 64 71 64 64 71 64 64 71 64 64
71 64 64 71 64 64 71 64 64 70 63 63 70 63 63 70 63 63 70 63 63 70 63 63
70 63 63 15 148 74 16 155 78 16 155 78 16 153 77 15 148 74 15 142 71 14 134 67
13 125 63 12 115 58 11 104 52 10 91 46 8 76 38 6 59 30 4 38 19 3 26 13 3 26 13
161 145 145 162 146 146 164 147 147 165 148 148 166 149 149 167 150 150
167 151 151 168 151 151 169 152 152 169 152 152 170 153 153 170 153 153
171 154 154 171 154 154 171 154 154 172 155 155 172 155 155
71 64 64 71 64 64 71 64 64 71 64 64 71 64 64 71 64 64 71 64 64 71 64 64
70 63 63 70 63 63 70 63 63 70 63 63 70 63 63 69 63 63 69 62 62 69 62 62
69 62 62 14 131 66 14 139 70 14 140 70 14 138 69 14 134 67 13 128 64 12 120 60
12 112 56 11 102 51 9 90 45 8 77 39 7 62 31 5 45 23 3 26 13 3 26 13 158 142 142
160 144 144 162 146 146 163 147 147 164 148 148 165 149 149 166 150 150
167 150 150 168 151 151 168 152 152 169 152 152 169 153 153 170 153 153
170 153 153 171 154 154 171 154 154 171 154 154 172 155 155
71 64 64 71 64 64 71 64 64 70 63 63 70 63 63 70 63 63 70 63 63 70 63 63
70 63 63 70 63 63 69 63 63 69 62 62 69 62 62 69 62 62 69 62 62 69 62 62
68 62 62 11 109 55 13 121 61 13 124 62 13 122 61 12 118 59 12 112 56 11 105 53
10 96 48 9 86 43 8 75 38 7 62 31 5 46 23 3 28 14 3 26 13 3 26 13 158 142 142
160 144 144 161 145 145 163 146 146 164 147 147 165 148 148 166 149 149
167 150 150 167 151 151 168 151 151 168 152 152 169 152 152 170 153 153
170 153 153 170 153 153 171 154 154 171 154 154 171 154 154
70 63 63 70 63 63 70 63 63 70 63 63 70 63 63 70 63 63 69 63 63 69 62 62
69 62 62 69 62 62 69 62 62 69 62 62 68 62 62 68 62 62 68 61 61 68 61 61
68 61 61 7 69 35 10 99 50 11 104 52 11 104 52 11 101 51 10 95 48 9 88 44
8 80 40 7 70 35 6 58 29 5 44 22 3 28 14 3 26 13 3 26 13 3 26 13 157 142 142
159 143 143 161 145 145 162 146 146 163 147 147 164 148 148 165 149 149
166 150 150 167 150 150 168 151 151 168 151 151 169 152 152 169 152 152
170 153 153 170 153 153 170 153 153 171 154 154 171 154 154
246 221 221 245 221 221 245 220 220 244 220 220 243 219 219 243 218 218
242 218 218 241 217 217 241 217 217 240 216 216 239 215 215 238 214 214
237 214 214 237 213 213 236 212 212 235 211 211 234 211 211 233 210 210 7 69 35
9 81 41 9 83 42 8 80 40 8 76 38 7 69 35 7 61 31 5 50 25 4 38 19 3 26 13
3 26 13 3 26 13 3 26 13 154 139 139 157 141 141 159 143 143 160 144 144
162 145 145 163 147 147 164 148 148 165 148 148 166 149 149 166 150 150
167 150 150 168 151 151 168 152 152 169 152 152 169 152 152 170 153 153
170 153 153 170 153 153 171 154 154
246 222 222 246 221 221 245 221 221 244 220 220 244 219 219 243 219 219
242 218 218 242 218 218 241 217 217 240 216 216 239 216 216 239 215 215
238 214 214 237 213 213 236 213 213 235 212 212 234 211 211 233 210 210
232 209 209 5 49 25 6 56 28 6 57 29 6 53 27 5 47 24 4 39 20 3 28 14 3 26 13
3 26 13 3 26 13 3 26 13 151 136 136 154 138 138 156 141 141 158 142 142
160 144 144 161 145 145 162 146 146 163 147 147 164 148 148 165 149 149
166 149 149 167 150 150 167 151 151 168 151 151 168 152 152 169 152 152
169 152 152 170 153 153 170 153 153 171 154 154
246 222 222 246 221 221 245 221 221 245 220 220 244 220 220 243 219 219
243 218 218 242 218 218 241 217 217 241 217 217 240 216 216 239 215 215
238 214 214 237 214 214 236 213 213 236 212 212 235 211 211 234 210 210
233 210 210 232 209 209 3 26 13 3 26 13 3 26 13 3 26 13 3 26 13 3 26 13 3 26 13
3 26 13 3 26 13 147 133 133 151 136 136 153 138 138 156 140 140 157 142 142
159 143 143 161 145 145 162 146 146 163 147 147 164 148 148 165 148 148
166 149 149 166 150 150 167 150 150 168 151 151 168 151 151 169 152 152
169 152 152 169 153 153 170 153 153 170 153 153
247 222 222 246 222 222 246 221 221 245 220 220 244 220 220 244 219 219
243 219 219 242 218 218 242 217 217 241 217 217 240 216 216 239 215 215
238 215 215 238 214 214 237 213 213 236 212 212 235 212 212 234 211 211
233 210 210 232 209 209 231 208 208 230 207 207 3 26 13 3 26 13 3 26 13 3 26 13
3 26 13 224 202 202 143 128 128 147 132 132 150 135 135 153 137 137
155 140 140 157 141 141 159 143 143 160 144 144 161 145 145 163 146 146
164 147 147 164 148 148 165 149 149 166 149 149 167 150 150 167 151 151
168 151 151 168 151 151 169 152 152 169 152 152 170 153 153 170 153 153
247 222 222 246 222 222 246 221 221 245 221 221 244 220 220 244 219 219
243 219 219 242 218 218 242 218 218 241 217 217 240 216 216 239 216 216
239 215 215 238 214 214 237 213 213 236 213 213 235 212 212 234 211 211
234 210 210 233 209 209 232 209 209 231 208 208 230 207 207 229 206 206
228 205 205 227 204 204 226 203 203 225 202 202 142 128 128 146 131 131
149 134 134 152 137 137 154 139 139 156 141 141 158 142 142 160 144 144
161 145 145 162 146 146 163 147 147 164 148 148 165 148 148 166 149 149
166 150 150 167 150 150 167 151 151 168 151 151 168 152 152 169 152 152
169 152 152 170 153 153
247 222 222 246 222 222 246 221 221 245 221 221 245 220 220 244 220 220
243 219 219 243 218 218 242 218 218 241 217 217 240 216 216 240 216 216
239 215 215 238 214 214 237 214 214 236 213 213 236 212 212 235 211 211
234 210 210 233 210 210 232 209 209 231 208 208 230 207 207 229 206 206
228 205 205 227 205 205 226 204 204 225 203 203 141 127 127 145 131 131
149 134 134 152 136 136 154 139 139 156 140 140 158 142 142 159 143 143
160 144 144 162 146 146 163 146 146 164 147 147 164 148 148 165 149 149
166 149 149 167 150 150 167 150 150 168 151 151 168 151 151 169 152 152
169 152 152 169 152 152
247 222 222 246 222 222 246 221 221 245 221 221 245 220 220 244 220 220
243 219 219 243 218 218 242 218 218 241 217 217 241 217 217 240 216 216
239 215 215 238 214 214 237 214 214 237 213 213 236 212 212 235 211 211
234 211 211 233 210 210 232 209 209 231 208 208 230 207 207 229 207 207
229 206 206 228 205 205 227 204 204 226 203 203 141 127 127 145 130 130
148 133 133 151 136 136 153 138 138 155 140 140 157 141 141 159 143 143
160 144 144 161 145 145 162 146 146 163 147 147 164 148 148 165 148 148
166 149 149 166 150 150 167 150 150 167 151 151 168 151 151 168 151 151
169 152 152 169 152 152
247 222 222 247 222 222 246 221 221 245 221 221 245 220 220 244 220 220
243 219 219 243 218 218 242 218 218 241 217 217 241 217 217 240 216 216
239 215 215 238 215 215 238 214 214 237 213 213 236 212 212 235 212 212
234 211 211 233 210 210 232 209 209 232 208 208 231 208 208 230 207 207
229 206 206 228 205 205 227 204 204 226 203 203 140 126 126 144 130 130
148 133 133 150 135 135 153 138 138 155 139 139 157 141 141 158 142 142
160 144 144 161 145 145 162 146 146 163 147 147 164 147 147 164 148 148
165 149 149 166 149 149 166 150 150 167 150 150 167 151 151 168 151 151
168 152 152 169 152 152
247 222 222 246 222 222 246 221 221 245 221 221 245 220 220 244 220 220
243 219 219 243 219 219 242 218 218 241 217 217 241 217 217 240 216 216
239 215 215 238 215 215 238 214 214 237 213 213 236 212 212 235 212 212
234 211 211 233 210 210 233 209 209 232 209 209 231 208 208 230 207 207
229 206 206 228 205 205 227 205 205 226 204 204 139 126 126 144 129 129
147 132 132 150 135 135 152 137 137 154 139 139 156 141 141 158 142 142
159 143 143 160 144 144 161 145 145 162 146 146 163 147 147 164 148 148
165 148 148 165 149 149 166 149 149 167 150 150 167 150 150 168 151 151
168 151 151 168 152 152
247 222 222 246 222 222 246 221 221 245 221 221 245 220 220 244 220 220
243 219 219 243 218 218 242 218 218 241 217 217 241 217 217 240 216 216
239 215 215 238 215 215 238 214 214 237 213 213 236 212 212 235 212 212
234 211 211 234 210 210 233 210 210 232 209 209 231 208 208 230 207 207
229 206 206 228 206 206 227 205 205 226 204 204 139 125 125 77 154 16 70 140 14
149 134 134 152 137 137 154 139 139 156 140 140 157 142 142 159 143 143
160 144 144 161 145 145 162 146 146 163 147 147 164 147 147 164 148 148
165 149 149 166 149 149 166 150 150 167 150 150 167 151 151 168 151 151
168 151 151
247 222 222 246 222 222 246 221 221 245 221 221 245 220 220 244 220 220
243 219 219 243 218 218 242 218 218 241 217 217 241 217 217 240 216 216
239 215 215 238 215 215 238 214 214 237 213 213 236 213 213 235 212 212
234 211 211 234 210 210 233 210 210 232 209 209 231 208 208 230 207 207
229 206 206 228 206 206 228 205 205 92 183 19 97 194 20 95 189 19 88 175 18
76 151 16 57 113 12 153 138 138 155 140 140 157 141 141 158 142 142 159 144 144
161 145 145 162 145 145 162 146 146 163 147 147 164 148 148 165 148 148
165 149 149 166 149 149 166 150 150 167 150 150 167 151 151 168 151 151
247 222 222 246 222 222 246 221 221 245 221 221 245 220 220 244 220 220
243 219 219 243 218 218 242 218 218 241 217 217 241 217 217 240 216 216
239 215 215 238 215 215 238 214 214 237 213 213 236 213 213 235 212 212
235 211 211 234 210 210 233 210 210 232 209 209 231 208 208 230 207 207
230 207 207 229 206 206 90 179 18 101 201 21 102 203 21 98 196 20 91 182 19
81 161 17 66 132 14 43 86 9 155 139 139 156 141 141 158 142 142 159 143 143
160 144 144 161 145 145 162 146 146 163 147 147 164 147 147 164 148 148
165 149 149 166 149 149 166 150 150 167 150 150 167 150 150 168 151 151
247 222 222 246 222 222 246 221 221 245 221 221 244 220 220 244 219 219
243 219 219 243 218 218 242 218 218 241 217 217 240 216 216 240 216 216
239 215 215 238 215 215 238 214 214 237 213 213 236 213 213 235 212 212
235 211 211 234 210 210 233 210 210 232 209 209 231 208 208 230 207 207
230 207 207 229 206 206 95 189 19 101 202 21 101 201 21 97 194 20 90 180 18
80 160 16 67 134 14 48 96 10 13 26 3 156 140 140 157 142 142 159 143 143
160 144 144 161 145 145 162 146 146 163 146 146 163 147 147 164 148 148
165 148 148 165 149 149 166 149 149 166 150 150 167 150 150 167 151 151
247 222 222 246 221 221 245 221 221 245 220 220 244 220 220 244 219 219
243 219 219 242 218 218 242 218 218 241 217 217 240 216 216 240 216 216
239 215 215 238 215 215 238 214 214 237 213 213 236 213 213 235 212 212
235 211 211 234 210 210 233 210 210 232 209 209 231 208 208 231 208 208
230 207 207 64 128 13 92 183 19 97 193 20 97 193 20 93 185 19 86 172 18 77 153 16
64 128 13 47 93 10 19 38 4 155 140 140 157 141 141 158 142 142 159 143 143
160 144 144 161 145 145 162 146 146 163 147 147 164 147 147 164 148 148
165 148 148 165 149 149 166 149 149 166 150 150 167 150 150
246 222 222 246 221 221 245 221 221 245 220 220 244 220 220 244 219 219
243 219 219 242 218 218 242 218 218 241 217 217 240 216 216 240 216 216
239 215 215 238 214 214 238 214 214 237 213 213 236 212 212 235 212 212
235 211 211 234 210 210 233 210 210 232 209 209 231 208 208 231 208 208
230 207 207 59 118 12 85 169 17 90 179 18 89 178 18 86 171 18 79 158 16 70 140 14
58 115 12 41 82 9 15 30 3 155 139 139 156 141 141 158 142 142 159 143 143
160 144 144 161 145 145 162 146 146 163 146 146 163 147 147 164 148 148
165 148 148 165 149 149 166 149 149 166 150 150 167 150 150
246 222 222 246 221 221 245 221 221 245 220 220 244 220 220 243 219 219
243 219 219 242 218 218 241 217 217 241 217 217 240 216 216 240 216 216
239 215 215 238 214 214 237 214 214 237 213 213 236 212 212 235 212 212
234 211 211 234 210 210 233 210 210 232 209 209 231 208 208 231 208 208
230 207 207 229 206 206 73 146 15 79 158 16 80 159 16 76 152 16 70 140 14
61 122 13 49 97 10 32 63 7 13 26 3 154 139 139 156 140 140 157 142 142
158 143 143 160 144 144 160 144 144 161 145 145 162 146 146 163 147 147
164 147 147 164 148 148 165 148 148 165 149 149 166 149 149 166 150 150
246 221 221 245 221 221 245 220 220 244 220 220 244 219 219 243 219 219
243 218 218 242 218 218 241 217 217 241 217 217 240 216 216 239 215 215
239 215 215 238 214 214 237 214 214 237 213 213 236 212 212 235 212 212
234 211 211 234 210 210 233 210 210 232 209 209 231 208 208 231 208 208
230 207 207 229 206 206 55 110 11 66 131 14 67 134 14 64 128 13 58 116 12 49 98 10
37 73 8 18 36 4 13 26 3 154 139 139 155 140 140 157 141 141 158 142 142
159 143 143 160 144 144 161 145 145 162 146 146 163 146 146 163 147 147
164 148 148 164 148 148 165 149 149 166 149 149 166 149 149
246 221 221 245 221 221 245 220 220 244 220 220 244 219 219 243 219 219
242 218 218 242 218 218 241 217 217 241 217 217 240 216 216 239 215 215
239 215 215 238 214 214 237 214 214 237 213 213 236 212 212 235 212 212
234 211 211 234 210 210 233 210 210 232 209 209 231 208 208 231 208 208
230 207 207 229 206 206 228 205 205 45 90 9 50 100 10 48 96 10 43 85 9 34 67 7
20 39 4 13 26 3 152 137 137 153 138 138 155 140 140 156 141 141 158 142 142
159 143 143 160 144 144 161 145 145 161 145 145 162 146 146 163 147 147
164 147 147 164 148 148 165 148 148 165 149 149 166 149 149
246 221 221 245 221 221 244 220 220 244 220 220 243 219 219 243 219 219
242 218 218 242 217 217 241 217 217 240 216 216 240 216 216 239 215 215
238 215 215 238 214 214 237 213 213 236 213 213 236 212 212 235 212 212
234 211 211 234 210 210 233 210 210 232 209 209 231 208 208 231 208 208
230 207 207 229 206 206 228 205 205 227 205 205 23 46 5 26 51 6 21 41 5 13 26 3
13 26 3 149 134 134 151 136 136 153 138 138 155 139 139 156 140 140
157 142 142 158 143 143 159 143 143 160 144 144 161 145 145 162 146 146
163 146 146 163 147 147 164 148 148 164 148 148 165 149 149 165 149 149
245 221 221 245 220 220 244 220 220 244 219 219 243 219 219 243 218 218
242 218 218 241 217 217 241 217 217 240 216 216 240 216 216 239 215 215
238 215 215 238 214 214 237 213 213 236 213 213 236 212 212 235 211 211
234 211 211 233 210 210 233 210 210 232 209 209 231 208 208 231 208 208
230 207 207 229 206 206 228 205 205 228 205 205 227 204 204 226 203 203
141 127 127 144 129 129 146 132 132 149 134 134 151 136 136 153 137 137
154 139 139 155 140 140 157 141 141 158 142 142 159 143 143 160 144 144
161 145 145 162 145 145 162 146 146 163 147 147 164 147 147 164 148 148
165 148 148 165 149 149
245 221 221 245 220 220 244 220 220 243 219 219 243 219 219 242 218 218
242 218 218 241 217 217 241 217 217 240 216 216 239 215 215 239 215 215
238 214 214 237 214 214 237 213 213 236 213 213 235 212 212 235 211 211
234 211 211 233 210 210 233 209 209 232 209 209 231 208 208 231 208 208
230 207 207 229 206 206 228 205 205 228 205 205 227 204 204 226 203 203
140 126 126 143 129 129 146 131 131 148 133 133 150 135 135 152 137 137
154 138 138 155 140 140 156 141 141 157 142 142 159 143 143 159 144 144
160 144 144 161 145 145 162 146 146 163 146 146 163 147 147 164 147 147
164 148 148 165 148 148
245 220 220 244 220 220 244 219 219 243 219 219 243 218 218 242 218 218
242 217 217 241 217 217 240 216 216 240 216 216 239 215 215 239 215 215
238 214 214 237 214 214 237 213 213 236 212 212 235 212 212 235 211 211
234 211 211 233 210 210 233 209 209 232 209 209 231 208 208 230 207 207
230 207 207 229 206 206 228 205 205 228 205 205 227 204 204 226 203 203
139 126 126 143 128 128 145 131 131 148 133 133 150 135 135 152 136 136
153 138 138 155 139 139 156 140 140 157 141 141 158 142 142 159 143 143
160 144 144 161 145 145 162 145 145 162 146 146 163 147 147 163 147 147
164 148 148 165 148 148
245 220 220 244 220 220 244 219 219 243 219 219 242 218 218 242 218 218
241 217 217 241 217 217 240 216 216 240 216 216 239 215 215 238 215 215
238 214 214 237 213 213 237 213 213 236 212 212 235 212 212 235 211 211
234 211 211 233 210 210 232 209 209 232 209 209 231 208 208 230 207 207
230 207 207 229 206 206 228 205 205 227 205 205 227 204 204 226 203 203
139 125 125 142 128 128 145 130 130 147 133 133 149 134 134 151 136 136
153 138 138 154 139 139 156 140 140 157 141 141 158 142 142 159 143 143
160 144 144 160 144 144 161 145 145 162 146 146 163 146 146 163 147 147
164 147 147 164 148 148
244 220 220 244 219 219 243 219 219 243 219 219 242 218 218 242 218 218
241 217 217 241 217 217 240 216 216 239 216 216 239 215 215 238 214 214
238 214 214 237 213 213 236 213 213 236 212 212 235 212 212 234 211 211
234 210 210 233 210 210 232 209 209 232 209 209 231 208 208 230 207 207
230 207 207 229 206 206 228 205 205 227 205 205 227 204 204 226 203 203
225 203 203 142 127 127 144 130 130 147 132 132 149 134 134 151 136 136
152 137 137 154 138 138 155 140 140 156 141 141 157 142 142 158 143 143
159 143 143 160 144 144 161 145 145 162 145 145 162 146 146 163 147 147
163 147 147 164 148 148
244 220 220 244 219 219 243 219 219 243 218 218 242 218 218 241 217 217
241 217 217 240 216 216 240 216 216 239 215 215 239 215 215 238 214 214
237 214 214 237 213 213 236 213 213 236 212 212 235 211 211 234 211 211
234 210 210 233 210 210 232 209 209 232 208 208 231 208 208 230 207 207
230 207 207 229 206 206 228 205 205 227 205 205 227 204 204 226 203 203
225 203 203 141 127 127 144 129 129 146 132 132 148 134 134 150 135 135
152 137 137 153 138 138 155 139 139 156 140 140 157 141 141 158 142 142
159 143 143 160 144 144 161 145 145 161 145 145 162 146 146 163 146 146
163 147 147 164 147 147
